<mxfile host="app.diagrams.net" modified="2023-09-09T15:58:04.040Z" agent="Mozilla/5.0 (Windows NT 10.0; Win64; x64) AppleWebKit/537.36 (KHTML, like Gecko) Chrome/114.0.0.0 YaBrowser/23.7.4.971 Yowser/2.5 Safari/537.36" etag="sZBomkQGenUgl9Ckv-B1" version="21.7.4" type="device">
  <diagram name="Страница — 1" id="_PMuWsuj99F1MHhibc72">
    <mxGraphModel dx="1980" dy="2313" grid="1" gridSize="10" guides="1" tooltips="1" connect="1" arrows="1" fold="1" page="1" pageScale="1" pageWidth="827" pageHeight="1169" math="0" shadow="0">
      <root>
        <mxCell id="0" />
        <mxCell id="1" parent="0" />
        <mxCell id="757-CA5JMHu2LMSvJnLD-2" value="Покупатель" style="shape=umlActor;verticalLabelPosition=bottom;verticalAlign=top;html=1;outlineConnect=0;" vertex="1" parent="1">
          <mxGeometry x="180" y="340" width="30" height="60" as="geometry" />
        </mxCell>
        <mxCell id="757-CA5JMHu2LMSvJnLD-3" value="Покупка инструмента" style="ellipse;whiteSpace=wrap;html=1;" vertex="1" parent="1">
          <mxGeometry x="340" y="240" width="120" height="80" as="geometry" />
        </mxCell>
        <mxCell id="757-CA5JMHu2LMSvJnLD-4" value="Менеджер" style="shape=umlActor;verticalLabelPosition=bottom;verticalAlign=top;html=1;outlineConnect=0;" vertex="1" parent="1">
          <mxGeometry x="180" y="60" width="30" height="60" as="geometry" />
        </mxCell>
        <mxCell id="757-CA5JMHu2LMSvJnLD-5" value="Управление заказами инструментов" style="ellipse;whiteSpace=wrap;html=1;" vertex="1" parent="1">
          <mxGeometry x="340" y="110" width="120" height="80" as="geometry" />
        </mxCell>
        <mxCell id="757-CA5JMHu2LMSvJnLD-6" value="Добавить заказ" style="ellipse;whiteSpace=wrap;html=1;" vertex="1" parent="1">
          <mxGeometry x="540" y="-20" width="120" height="80" as="geometry" />
        </mxCell>
        <mxCell id="757-CA5JMHu2LMSvJnLD-7" value="Отменить заказ" style="ellipse;whiteSpace=wrap;html=1;" vertex="1" parent="1">
          <mxGeometry x="540" y="70" width="120" height="80" as="geometry" />
        </mxCell>
        <mxCell id="757-CA5JMHu2LMSvJnLD-8" value="Поменять инструмент" style="ellipse;whiteSpace=wrap;html=1;" vertex="1" parent="1">
          <mxGeometry x="540" y="160" width="120" height="80" as="geometry" />
        </mxCell>
        <mxCell id="757-CA5JMHu2LMSvJnLD-9" value="Заказать инструмент" style="ellipse;whiteSpace=wrap;html=1;" vertex="1" parent="1">
          <mxGeometry x="540" y="250" width="120" height="80" as="geometry" />
        </mxCell>
        <mxCell id="757-CA5JMHu2LMSvJnLD-11" value="&amp;lt;&amp;lt;include&amp;gt;&amp;gt;" style="html=1;verticalAlign=bottom;labelBackgroundColor=none;endArrow=open;endFill=0;dashed=1;rounded=0;entryX=0;entryY=0.5;entryDx=0;entryDy=0;exitX=1;exitY=0.5;exitDx=0;exitDy=0;" edge="1" parent="1" source="757-CA5JMHu2LMSvJnLD-5" target="757-CA5JMHu2LMSvJnLD-6">
          <mxGeometry width="160" relative="1" as="geometry">
            <mxPoint x="480" y="60" as="sourcePoint" />
            <mxPoint x="236" y="120" as="targetPoint" />
          </mxGeometry>
        </mxCell>
        <mxCell id="757-CA5JMHu2LMSvJnLD-12" value="&amp;lt;&amp;lt;include&amp;gt;&amp;gt;" style="html=1;verticalAlign=bottom;labelBackgroundColor=none;endArrow=open;endFill=0;dashed=1;rounded=0;entryX=0;entryY=0.5;entryDx=0;entryDy=0;exitX=1;exitY=0.5;exitDx=0;exitDy=0;" edge="1" parent="1" source="757-CA5JMHu2LMSvJnLD-5" target="757-CA5JMHu2LMSvJnLD-7">
          <mxGeometry width="160" relative="1" as="geometry">
            <mxPoint x="370" y="40" as="sourcePoint" />
            <mxPoint x="126" y="100" as="targetPoint" />
          </mxGeometry>
        </mxCell>
        <mxCell id="757-CA5JMHu2LMSvJnLD-13" value="&amp;lt;&amp;lt;include&amp;gt;&amp;gt;" style="html=1;verticalAlign=bottom;labelBackgroundColor=none;endArrow=open;endFill=0;dashed=1;rounded=0;entryX=0;entryY=0.5;entryDx=0;entryDy=0;exitX=1;exitY=0.5;exitDx=0;exitDy=0;" edge="1" parent="1" source="757-CA5JMHu2LMSvJnLD-5" target="757-CA5JMHu2LMSvJnLD-8">
          <mxGeometry width="160" relative="1" as="geometry">
            <mxPoint x="410" y="250" as="sourcePoint" />
            <mxPoint x="166" y="310" as="targetPoint" />
          </mxGeometry>
        </mxCell>
        <mxCell id="757-CA5JMHu2LMSvJnLD-14" value="&amp;lt;&amp;lt;include&amp;gt;&amp;gt;" style="html=1;verticalAlign=bottom;labelBackgroundColor=none;endArrow=open;endFill=0;dashed=1;rounded=0;entryX=0;entryY=0.5;entryDx=0;entryDy=0;exitX=1;exitY=0.5;exitDx=0;exitDy=0;" edge="1" parent="1" source="757-CA5JMHu2LMSvJnLD-5" target="757-CA5JMHu2LMSvJnLD-9">
          <mxGeometry width="160" relative="1" as="geometry">
            <mxPoint x="420" y="230" as="sourcePoint" />
            <mxPoint x="176" y="290" as="targetPoint" />
          </mxGeometry>
        </mxCell>
        <mxCell id="757-CA5JMHu2LMSvJnLD-15" value="Отправка отзыва об инструменте" style="ellipse;whiteSpace=wrap;html=1;" vertex="1" parent="1">
          <mxGeometry x="340" width="120" height="80" as="geometry" />
        </mxCell>
        <mxCell id="757-CA5JMHu2LMSvJnLD-16" value="" style="endArrow=none;html=1;rounded=0;exitX=0.5;exitY=0.5;exitDx=0;exitDy=0;exitPerimeter=0;entryX=0;entryY=0.5;entryDx=0;entryDy=0;" edge="1" parent="1" source="757-CA5JMHu2LMSvJnLD-4" target="757-CA5JMHu2LMSvJnLD-15">
          <mxGeometry width="50" height="50" relative="1" as="geometry">
            <mxPoint x="260" y="120" as="sourcePoint" />
            <mxPoint x="310" y="70" as="targetPoint" />
          </mxGeometry>
        </mxCell>
        <mxCell id="757-CA5JMHu2LMSvJnLD-17" value="" style="endArrow=none;html=1;rounded=0;exitX=0.5;exitY=0.5;exitDx=0;exitDy=0;exitPerimeter=0;entryX=0;entryY=0.5;entryDx=0;entryDy=0;" edge="1" parent="1" source="757-CA5JMHu2LMSvJnLD-4" target="757-CA5JMHu2LMSvJnLD-5">
          <mxGeometry width="50" height="50" relative="1" as="geometry">
            <mxPoint x="230" y="200" as="sourcePoint" />
            <mxPoint x="280" y="150" as="targetPoint" />
          </mxGeometry>
        </mxCell>
        <mxCell id="757-CA5JMHu2LMSvJnLD-18" value="Отправка комментария на поставщика" style="ellipse;whiteSpace=wrap;html=1;" vertex="1" parent="1">
          <mxGeometry x="260" y="-120" width="120" height="80" as="geometry" />
        </mxCell>
        <mxCell id="757-CA5JMHu2LMSvJnLD-19" value="Жалоба на поставщика" style="ellipse;whiteSpace=wrap;html=1;" vertex="1" parent="1">
          <mxGeometry x="420" y="-120" width="120" height="80" as="geometry" />
        </mxCell>
        <mxCell id="757-CA5JMHu2LMSvJnLD-20" value="&amp;lt;&amp;lt;include&amp;gt;&amp;gt;" style="html=1;verticalAlign=bottom;labelBackgroundColor=none;endArrow=open;endFill=0;dashed=1;rounded=0;exitX=0.5;exitY=0;exitDx=0;exitDy=0;entryX=0.5;entryY=1;entryDx=0;entryDy=0;" edge="1" parent="1" source="757-CA5JMHu2LMSvJnLD-15" target="757-CA5JMHu2LMSvJnLD-18">
          <mxGeometry width="160" relative="1" as="geometry">
            <mxPoint x="150" y="-30" as="sourcePoint" />
            <mxPoint x="310" y="-30" as="targetPoint" />
          </mxGeometry>
        </mxCell>
        <mxCell id="757-CA5JMHu2LMSvJnLD-21" value="&amp;lt;&amp;lt;include&amp;gt;&amp;gt;" style="html=1;verticalAlign=bottom;labelBackgroundColor=none;endArrow=open;endFill=0;dashed=1;rounded=0;exitX=0.5;exitY=0;exitDx=0;exitDy=0;entryX=0.5;entryY=1;entryDx=0;entryDy=0;" edge="1" parent="1" source="757-CA5JMHu2LMSvJnLD-15" target="757-CA5JMHu2LMSvJnLD-19">
          <mxGeometry width="160" relative="1" as="geometry">
            <mxPoint x="420" y="-10" as="sourcePoint" />
            <mxPoint x="580" y="-10" as="targetPoint" />
          </mxGeometry>
        </mxCell>
        <mxCell id="757-CA5JMHu2LMSvJnLD-22" value="Выбор инструмента" style="ellipse;whiteSpace=wrap;html=1;" vertex="1" parent="1">
          <mxGeometry x="340" y="330" width="120" height="80" as="geometry" />
        </mxCell>
        <mxCell id="757-CA5JMHu2LMSvJnLD-23" value="Просмотр состояния инструмента" style="ellipse;whiteSpace=wrap;html=1;" vertex="1" parent="1">
          <mxGeometry x="340" y="420" width="120" height="80" as="geometry" />
        </mxCell>
        <mxCell id="757-CA5JMHu2LMSvJnLD-24" value="Просмотр информации о товаре" style="ellipse;whiteSpace=wrap;html=1;" vertex="1" parent="1">
          <mxGeometry x="340" y="510" width="120" height="80" as="geometry" />
        </mxCell>
        <mxCell id="757-CA5JMHu2LMSvJnLD-25" value="Отправка отзыва об инструменте" style="ellipse;whiteSpace=wrap;html=1;" vertex="1" parent="1">
          <mxGeometry x="340" y="600" width="120" height="80" as="geometry" />
        </mxCell>
        <mxCell id="757-CA5JMHu2LMSvJnLD-26" value="Отправка комментария на организацию" style="ellipse;whiteSpace=wrap;html=1;" vertex="1" parent="1">
          <mxGeometry x="530" y="560" width="120" height="80" as="geometry" />
        </mxCell>
        <mxCell id="757-CA5JMHu2LMSvJnLD-27" value="Жалоба на организацию" style="ellipse;whiteSpace=wrap;html=1;" vertex="1" parent="1">
          <mxGeometry x="530" y="660" width="120" height="80" as="geometry" />
        </mxCell>
        <mxCell id="757-CA5JMHu2LMSvJnLD-28" value="&amp;lt;&amp;lt;include&amp;gt;&amp;gt;" style="html=1;verticalAlign=bottom;labelBackgroundColor=none;endArrow=open;endFill=0;dashed=1;rounded=0;exitX=1;exitY=0.5;exitDx=0;exitDy=0;entryX=0;entryY=0.5;entryDx=0;entryDy=0;" edge="1" parent="1" source="757-CA5JMHu2LMSvJnLD-25" target="757-CA5JMHu2LMSvJnLD-26">
          <mxGeometry width="160" relative="1" as="geometry">
            <mxPoint x="510" y="530" as="sourcePoint" />
            <mxPoint x="670" y="530" as="targetPoint" />
          </mxGeometry>
        </mxCell>
        <mxCell id="757-CA5JMHu2LMSvJnLD-29" value="&amp;lt;&amp;lt;include&amp;gt;&amp;gt;" style="html=1;verticalAlign=bottom;labelBackgroundColor=none;endArrow=open;endFill=0;dashed=1;rounded=0;exitX=1;exitY=0.5;exitDx=0;exitDy=0;entryX=0;entryY=0.5;entryDx=0;entryDy=0;" edge="1" parent="1" source="757-CA5JMHu2LMSvJnLD-25" target="757-CA5JMHu2LMSvJnLD-27">
          <mxGeometry width="160" relative="1" as="geometry">
            <mxPoint x="440" y="750" as="sourcePoint" />
            <mxPoint x="600" y="750" as="targetPoint" />
          </mxGeometry>
        </mxCell>
        <mxCell id="757-CA5JMHu2LMSvJnLD-30" value="Заказ доставкой" style="ellipse;whiteSpace=wrap;html=1;" vertex="1" parent="1">
          <mxGeometry x="340" y="690" width="120" height="80" as="geometry" />
        </mxCell>
        <mxCell id="757-CA5JMHu2LMSvJnLD-31" value="Поменять инструмент" style="ellipse;whiteSpace=wrap;html=1;" vertex="1" parent="1">
          <mxGeometry x="340" y="820" width="120" height="80" as="geometry" />
        </mxCell>
        <mxCell id="757-CA5JMHu2LMSvJnLD-32" value="Отменить заказ" style="ellipse;whiteSpace=wrap;html=1;" vertex="1" parent="1">
          <mxGeometry x="210" y="820" width="120" height="80" as="geometry" />
        </mxCell>
        <mxCell id="757-CA5JMHu2LMSvJnLD-33" value="Добавить заказ" style="ellipse;whiteSpace=wrap;html=1;" vertex="1" parent="1">
          <mxGeometry x="470" y="820" width="120" height="80" as="geometry" />
        </mxCell>
        <mxCell id="757-CA5JMHu2LMSvJnLD-34" value="&amp;lt;&amp;lt;include&amp;gt;&amp;gt;" style="html=1;verticalAlign=bottom;labelBackgroundColor=none;endArrow=open;endFill=0;dashed=1;rounded=0;entryX=0.5;entryY=0;entryDx=0;entryDy=0;exitX=0.5;exitY=1;exitDx=0;exitDy=0;" edge="1" parent="1" source="757-CA5JMHu2LMSvJnLD-30" target="757-CA5JMHu2LMSvJnLD-32">
          <mxGeometry width="160" relative="1" as="geometry">
            <mxPoint x="240" y="750" as="sourcePoint" />
            <mxPoint x="400" y="750" as="targetPoint" />
          </mxGeometry>
        </mxCell>
        <mxCell id="757-CA5JMHu2LMSvJnLD-35" value="&amp;lt;&amp;lt;include&amp;gt;&amp;gt;" style="html=1;verticalAlign=bottom;labelBackgroundColor=none;endArrow=open;endFill=0;dashed=1;rounded=0;exitX=0.5;exitY=1;exitDx=0;exitDy=0;entryX=0.5;entryY=0;entryDx=0;entryDy=0;" edge="1" parent="1" source="757-CA5JMHu2LMSvJnLD-30" target="757-CA5JMHu2LMSvJnLD-33">
          <mxGeometry width="160" relative="1" as="geometry">
            <mxPoint x="540" y="800" as="sourcePoint" />
            <mxPoint x="700" y="800" as="targetPoint" />
          </mxGeometry>
        </mxCell>
        <mxCell id="757-CA5JMHu2LMSvJnLD-36" value="&amp;lt;&amp;lt;include&amp;gt;&amp;gt;" style="html=1;verticalAlign=bottom;labelBackgroundColor=none;endArrow=open;endFill=0;dashed=1;rounded=0;exitX=0.5;exitY=1;exitDx=0;exitDy=0;entryX=0.5;entryY=0;entryDx=0;entryDy=0;" edge="1" parent="1" source="757-CA5JMHu2LMSvJnLD-30" target="757-CA5JMHu2LMSvJnLD-31">
          <mxGeometry width="160" relative="1" as="geometry">
            <mxPoint x="140" y="760" as="sourcePoint" />
            <mxPoint x="300" y="760" as="targetPoint" />
          </mxGeometry>
        </mxCell>
        <mxCell id="757-CA5JMHu2LMSvJnLD-37" value="" style="endArrow=none;html=1;rounded=0;exitX=0.5;exitY=0.5;exitDx=0;exitDy=0;exitPerimeter=0;entryX=0;entryY=0.5;entryDx=0;entryDy=0;" edge="1" parent="1" source="757-CA5JMHu2LMSvJnLD-2" target="757-CA5JMHu2LMSvJnLD-3">
          <mxGeometry width="50" height="50" relative="1" as="geometry">
            <mxPoint x="260" y="320" as="sourcePoint" />
            <mxPoint x="310" y="270" as="targetPoint" />
          </mxGeometry>
        </mxCell>
        <mxCell id="757-CA5JMHu2LMSvJnLD-39" value="" style="endArrow=block;html=1;rounded=0;exitX=0.5;exitY=0.5;exitDx=0;exitDy=0;exitPerimeter=0;endFill=0;" edge="1" parent="1" source="757-CA5JMHu2LMSvJnLD-4">
          <mxGeometry width="50" height="50" relative="1" as="geometry">
            <mxPoint x="200" y="250" as="sourcePoint" />
            <mxPoint x="195" y="330" as="targetPoint" />
          </mxGeometry>
        </mxCell>
        <mxCell id="757-CA5JMHu2LMSvJnLD-40" value="" style="endArrow=none;html=1;rounded=0;exitX=0.5;exitY=0.5;exitDx=0;exitDy=0;exitPerimeter=0;entryX=0;entryY=0.5;entryDx=0;entryDy=0;" edge="1" parent="1" source="757-CA5JMHu2LMSvJnLD-2" target="757-CA5JMHu2LMSvJnLD-30">
          <mxGeometry width="50" height="50" relative="1" as="geometry">
            <mxPoint x="160" y="550" as="sourcePoint" />
            <mxPoint x="210" y="500" as="targetPoint" />
          </mxGeometry>
        </mxCell>
        <mxCell id="757-CA5JMHu2LMSvJnLD-41" value="" style="endArrow=none;html=1;rounded=0;exitX=0.5;exitY=0.5;exitDx=0;exitDy=0;exitPerimeter=0;entryX=0;entryY=0.5;entryDx=0;entryDy=0;" edge="1" parent="1" source="757-CA5JMHu2LMSvJnLD-2" target="757-CA5JMHu2LMSvJnLD-23">
          <mxGeometry width="50" height="50" relative="1" as="geometry">
            <mxPoint x="270" y="410" as="sourcePoint" />
            <mxPoint x="320" y="360" as="targetPoint" />
          </mxGeometry>
        </mxCell>
        <mxCell id="757-CA5JMHu2LMSvJnLD-42" value="" style="endArrow=none;html=1;rounded=0;exitX=0.5;exitY=0.5;exitDx=0;exitDy=0;exitPerimeter=0;entryX=0;entryY=0.5;entryDx=0;entryDy=0;" edge="1" parent="1" source="757-CA5JMHu2LMSvJnLD-2" target="757-CA5JMHu2LMSvJnLD-24">
          <mxGeometry width="50" height="50" relative="1" as="geometry">
            <mxPoint x="280" y="490" as="sourcePoint" />
            <mxPoint x="330" y="440" as="targetPoint" />
          </mxGeometry>
        </mxCell>
        <mxCell id="757-CA5JMHu2LMSvJnLD-43" value="" style="endArrow=none;html=1;rounded=0;exitX=0.5;exitY=0.5;exitDx=0;exitDy=0;exitPerimeter=0;entryX=0;entryY=0.5;entryDx=0;entryDy=0;" edge="1" parent="1" source="757-CA5JMHu2LMSvJnLD-2" target="757-CA5JMHu2LMSvJnLD-25">
          <mxGeometry width="50" height="50" relative="1" as="geometry">
            <mxPoint x="290" y="580" as="sourcePoint" />
            <mxPoint x="340" y="530" as="targetPoint" />
          </mxGeometry>
        </mxCell>
        <mxCell id="757-CA5JMHu2LMSvJnLD-44" value="" style="endArrow=none;html=1;rounded=0;exitX=0.5;exitY=0.5;exitDx=0;exitDy=0;exitPerimeter=0;entryX=0;entryY=0.5;entryDx=0;entryDy=0;" edge="1" parent="1" source="757-CA5JMHu2LMSvJnLD-2" target="757-CA5JMHu2LMSvJnLD-22">
          <mxGeometry width="50" height="50" relative="1" as="geometry">
            <mxPoint x="270" y="410" as="sourcePoint" />
            <mxPoint x="320" y="360" as="targetPoint" />
          </mxGeometry>
        </mxCell>
      </root>
    </mxGraphModel>
  </diagram>
</mxfile>
